<svg id="Layer_1" data-name="Layer 1" xmlns="http://www.w3.org/2000/svg" viewBox="0 0 411.51 92.54"><defs><style>.cls-1{fill:#231f20;}</style></defs><path class="cls-1" d="M42.54,92.37c-13.29,0-26.58,0-39.87,0C.56,92.42,0,92,0,90.29c.11-9.22.08-18.45,0-27.68a2.64,2.64,0,0,1,1.87-2.69q19.38-9.21,38.66-18.58a3.51,3.51,0,0,1,3.52.07q19.5,9.3,39.05,18.52c1.41.66,1.92,1.37,1.91,2.66C85,71.82,84.94,81,85,90.27c0,1.66-.49,2.15-2.64,2.14C69.11,92.32,55.82,92.37,42.54,92.37Z"/><path class="cls-1" d="M.07,44.51c0-14.43,0-28.76,0-43.09C0,.13.64,0,2,0Q42.56,0,83.14,0C84.61,0,85,.3,85,1.48c0,14.41,0,28.81,0,43.46l-19.82-5c-7-1.79-14.07-3.57-21.07-5.41a7.21,7.21,0,0,0-3.8,0c-12.56,3.17-25.14,6.28-37.72,9.41C1.79,44.12,1,44.29.07,44.51Z"/><path class="cls-1" d="M227.29,71.08V1.17A1.17,1.17,0,0,0,226.12,0H206a1.18,1.18,0,0,0-1.18,1.17v90A1.17,1.17,0,0,0,206,92.31h49.59a1.17,1.17,0,0,0,1.17-1.17V73.42a1.17,1.17,0,0,0-1.17-1.17h-27.1A1.17,1.17,0,0,1,227.29,71.08Z"/><path class="cls-1" d="M292.64,19.2V38.75a1.17,1.17,0,0,0,1.18,1.17h28.26a1.17,1.17,0,0,1,1.1,1.57l-5.79,16a1.18,1.18,0,0,1-1.1.77H293.82a1.18,1.18,0,0,0-1.18,1.17v32a1.17,1.17,0,0,1-1.17,1.17H271.26a1.17,1.17,0,0,1-1.17-1.17V1.17A1.17,1.17,0,0,1,271.26,0h57.91a1.18,1.18,0,0,1,1.17,1.17V16.86A1.17,1.17,0,0,1,329.17,18H293.82A1.18,1.18,0,0,0,292.64,19.2Z"/><path class="cls-1" d="M366.44,33.45l21.44,58.32a1.18,1.18,0,0,0,1.1.77h21.36a1.17,1.17,0,0,0,1.1-1.57L378.82.78a1.17,1.17,0,0,0-1.1-.78H353.25a1.17,1.17,0,0,0-1.1.78L319.53,91a1.17,1.17,0,0,0,1.1,1.57h21.08a1.18,1.18,0,0,0,1.11-.8l5.28-15.57,16.15-42.73A1.17,1.17,0,0,1,366.44,33.45Z"/><path class="cls-1" d="M145.86,33.45l21.45,58.32a1.18,1.18,0,0,0,1.1.77h21.36a1.18,1.18,0,0,0,1.1-1.57L158.24.78a1.17,1.17,0,0,0-1.1-.78H132.68a1.16,1.16,0,0,0-1.1.78L99,91a1.17,1.17,0,0,0,1.1,1.57h21.08a1.17,1.17,0,0,0,1.11-.8l5.28-15.57,16.15-42.73A1.17,1.17,0,0,1,145.86,33.45Z"/></svg>