<svg id="Layer_1" data-name="Layer 1" xmlns="http://www.w3.org/2000/svg" viewBox="0 0 415.22 158.32"><defs><style>.cls-1{font-size:15.49px;}.cls-1,.cls-2,.cls-3,.cls-4{fill:#fff;}.cls-1,.cls-4{font-family:STC-Bold, STC;}.cls-1,.cls-3,.cls-4{font-weight:700;}.cls-3{font-size:21.23px;font-family:Gotham-Bold, Gotham;letter-spacing:-0.06em;}.cls-4{font-size:29.61px;}</style></defs><text class="cls-1" transform="translate(226.18 65.63)"> </text><path class="cls-2" d="M44.21,92.37c-13.29,0-26.58,0-39.87,0-2.1,0-2.69-.42-2.67-2.11.11-9.22.08-18.45,0-27.68a2.65,2.65,0,0,1,1.87-2.69q19.38-9.21,38.66-18.58a3.53,3.53,0,0,1,3.53.07q19.49,9.3,39,18.52c1.41.66,1.92,1.37,1.91,2.66-.07,9.23-.09,18.45,0,27.68,0,1.66-.49,2.15-2.64,2.14C70.79,92.32,57.5,92.37,44.21,92.37Z"/><path class="cls-2" d="M1.74,44.51c0-14.43,0-28.76,0-43.09C1.69.13,2.31,0,3.65,0Q44.24,0,84.81,0c1.48,0,1.89.3,1.88,1.48,0,14.41,0,28.81,0,43.46l-19.82-5c-7-1.79-14.06-3.57-21.07-5.41a7.21,7.21,0,0,0-3.8,0c-12.56,3.17-25.14,6.28-37.72,9.41C3.46,44.12,2.66,44.29,1.74,44.51Z"/><path class="cls-2" d="M229,71.08V1.17A1.17,1.17,0,0,0,227.79,0H207.64a1.17,1.17,0,0,0-1.17,1.17v90a1.17,1.17,0,0,0,1.17,1.17h49.59a1.17,1.17,0,0,0,1.17-1.17V73.42a1.17,1.17,0,0,0-1.17-1.17h-27.1A1.17,1.17,0,0,1,229,71.08Z"/><path class="cls-2" d="M294.32,19.2V38.75a1.17,1.17,0,0,0,1.17,1.17h28.26a1.17,1.17,0,0,1,1.1,1.57l-5.78,16a1.18,1.18,0,0,1-1.1.77H295.49a1.17,1.17,0,0,0-1.17,1.17v32a1.18,1.18,0,0,1-1.17,1.17H272.93a1.18,1.18,0,0,1-1.17-1.17V1.17A1.18,1.18,0,0,1,272.93,0h57.91A1.17,1.17,0,0,1,332,1.17V16.86A1.17,1.17,0,0,1,330.84,18H295.49A1.17,1.17,0,0,0,294.32,19.2Z"/><path class="cls-2" d="M368.11,33.45l21.45,58.32a1.17,1.17,0,0,0,1.1.77H412a1.18,1.18,0,0,0,1.1-1.57L380.49.78a1.17,1.17,0,0,0-1.1-.78H354.93a1.15,1.15,0,0,0-1.1.78L321.2,91a1.17,1.17,0,0,0,1.1,1.57h21.08a1.17,1.17,0,0,0,1.11-.8l5.28-15.57,16.15-42.73A1.17,1.17,0,0,1,368.11,33.45Z"/><path class="cls-2" d="M147.54,33.45,169,91.77a1.18,1.18,0,0,0,1.1.77h21.36a1.17,1.17,0,0,0,1.1-1.57L159.91.78a1.15,1.15,0,0,0-1.1-.78H134.35a1.17,1.17,0,0,0-1.1.78L100.62,91a1.18,1.18,0,0,0,1.1,1.57H122.8a1.16,1.16,0,0,0,1.11-.8l5.29-15.57,16.14-42.73A1.18,1.18,0,0,1,147.54,33.45Z"/><text class="cls-3" transform="translate(1.04 119.66)">ALFA MARINE INDUSTRIAL SERVICES CO</text><text class="cls-4" transform="translate(0 143.83) scale(0.98 1)">ةيعانصلا تامدخلل ةيرحبلا افلا ةكرش</text><rect class="cls-2" y="128.62" width="0.04" height="0.01"/></svg>