<svg id="Layer_1" data-name="Layer 1" xmlns="http://www.w3.org/2000/svg" viewBox="0 0 1482.3 945.84"><defs><style>.cls-1{fill:#2c95d2;}.cls-2{fill:#21386d;}.cls-3{font-size:16.52px;fill:#fff;font-family:STC-Bold, STC;font-weight:700;}</style></defs><rect class="cls-1" x="474.53" y="68.26" width="173.62" height="154.45"/><rect class="cls-2" x="777.76" y="68.26" width="173.62" height="154.45"/><text class="cls-3" transform="translate(526.74 148.32) scale(1.31 1)">2C95D2</text><text class="cls-3" transform="translate(832.57 148.32) scale(1.31 1)">21386D</text><path class="cls-2" d="M450.42,637.13c-26.53,0-53.07-.07-79.6.08-4.21,0-5.37-.84-5.33-4.22.21-18.42.15-36.84,0-55.27,0-2.53.91-4,3.73-5.37q38.72-18.4,77.2-37.11c2.74-1.34,4.58-1,7,.15q38.92,18.57,78,37c2.81,1.31,3.83,2.75,3.81,5.32-.13,18.42-.18,36.85,0,55.27,0,3.31-1,4.29-5.28,4.27C503.49,637.05,477,637.13,450.42,637.13Z"/><path class="cls-1" d="M365.62,541.57c0-28.82.05-57.42-.08-86,0-2.58,1.22-2.83,3.9-2.83q81,.07,162.06,0c2.94,0,3.77.6,3.76,3-.1,28.76-.07,57.51-.07,86.78-13.43-3.41-26.51-6.71-39.58-10-14-3.57-28.08-7.12-42.07-10.8a14.48,14.48,0,0,0-7.59,0q-37.62,9.48-75.31,18.79C369.06,540.8,367.46,541.14,365.62,541.57Z"/><path class="cls-2" d="M819.34,594.63V455A2.33,2.33,0,0,0,817,452.7H776.76a2.33,2.33,0,0,0-2.33,2.34V634.69a2.33,2.33,0,0,0,2.33,2.33h99a2.33,2.33,0,0,0,2.34-2.33V599.31a2.34,2.34,0,0,0-2.34-2.34H821.68A2.34,2.34,0,0,1,819.34,594.63Z"/><path class="cls-2" d="M949.85,491v39a2.34,2.34,0,0,0,2.34,2.34h56.43a2.34,2.34,0,0,1,2.2,3.13l-11.55,31.86a2.34,2.34,0,0,1-2.2,1.54H952.19a2.34,2.34,0,0,0-2.34,2.34v63.85a2.34,2.34,0,0,1-2.34,2.34H907.15a2.34,2.34,0,0,1-2.34-2.34V455a2.34,2.34,0,0,1,2.34-2.34h115.62a2.34,2.34,0,0,1,2.34,2.34v31.33a2.34,2.34,0,0,1-2.34,2.34H952.19A2.33,2.33,0,0,0,949.85,491Z"/><path class="cls-2" d="M1097.2,519.49,1140,635.94a2.36,2.36,0,0,0,2.2,1.54h42.65a2.34,2.34,0,0,0,2.2-3.14l-65.15-180.1a2.36,2.36,0,0,0-2.2-1.54h-48.85a2.33,2.33,0,0,0-2.19,1.54l-65.15,180.1a2.33,2.33,0,0,0,2.19,3.14h42.1a2.33,2.33,0,0,0,2.21-1.59l10.55-31.1,32.24-85.32A2.34,2.34,0,0,1,1097.2,519.49Z"/><path class="cls-2" d="M656.75,519.49l42.82,116.45a2.34,2.34,0,0,0,2.19,1.54h42.66a2.34,2.34,0,0,0,2.2-3.14l-65.15-180.1a2.36,2.36,0,0,0-2.2-1.54H630.42a2.36,2.36,0,0,0-2.2,1.54l-65.15,180.1a2.34,2.34,0,0,0,2.2,3.14h42.09a2.35,2.35,0,0,0,2.22-1.59l10.55-31.1,32.24-85.32A2.34,2.34,0,0,1,656.75,519.49Z"/></svg>